<?xml version="1.0" encoding="UTF-8" standalone="no"?>
<!DOCTYPE svg PUBLIC "-//W3C//DTD SVG 1.1//EN" "http://www.w3.org/Graphics/SVG/1.1/DTD/svg11.dtd">
<svg version="1.1" xmlns="http://www.w3.org/2000/svg" xmlns:xlink="http://www.w3.org/1999/xlink" preserveAspectRatio="xMidYMid meet" viewBox="0 0 538 247" width="538" height="247"><defs><path d="M266.81 245.04L42.72 187.64L36.52 100.77L266.81 160.49L266.81 245.04Z" id="g4WUhojsV"></path><path d="M266.81 245.04L490.9 187.64L497.1 100.77L266.81 160.49L266.81 245.04Z" id="b2BBhGioc"></path><path d="M270.28 39.65C270.28 60.44 287.13 77.29 307.92 77.29C328.71 77.29 345.57 60.44 345.57 39.65C345.56 18.86 328.71 2 307.92 2C287.13 2 270.28 18.86 270.28 39.65ZM286.35 39.65C286.35 27.73 296.01 18.08 307.92 18.08C319.84 18.08 329.5 27.73 329.5 39.65C329.5 51.56 319.83 61.22 307.92 61.22C296.01 61.22 286.35 51.56 286.35 39.65Z" id="m1loDjLCBM"></path><path d="M507.34 5.56L507.34 61.22L537.01 61.22L537.01 77.29L489.73 77.29L489.73 5.56L507.34 5.56Z" id="a1fYPSKmPd"></path><path d="M218.73 3.81L236.41 46.99L253.8 3.81L272.93 3.81L243.65 77.29L228.29 77.29L199.31 3.81L218.73 3.81Z" id="bNkejvuF"></path><path d="" id="e1FugfuL8I"></path><path d="M161.54 5.5L133.4 74.04C123.22 60.79 117.56 53.43 116.43 51.95C116.43 51.95 129.55 46.9 129.55 29.1C129.55 11.3 114.76 6.47 110.58 6.05C107.29 5.72 69.93 5.5 69.93 5.5C69.93 10.29 69.93 34.22 69.93 77.3L87.37 77.3L87.37 55.68L98.53 55.68L113.41 77.3L150.38 77.3L156.19 61.72L185.25 61.72L191.76 77.3L210.82 77.3L179.21 5.5L161.54 5.5ZM87.26 39.12L87.26 20.55C96.87 20.55 102.21 20.55 103.28 20.55C108.29 20.55 112.35 24.61 112.35 29.62C112.35 34.87 108.09 39.12 102.85 39.12C100.77 39.12 95.57 39.12 87.26 39.12ZM171.2 29.1L179.16 46.62L163.24 46.62L171.2 29.1Z" id="a6gDuhroEG"></path><path d="M452.14 60.5C453.89 59.76 455.39 58.7 456.6 57.32C457.82 55.94 458.74 54.26 459.38 52.27C460.02 50.28 460.34 49.76 460.34 47.22C460.34 44.39 460.34 30.21 460.34 4.69L477 4.69C477 30.21 477 44.39 477 47.22C477 51.63 476.29 55.67 474.86 59.35C473.43 63.03 471.39 66.2 468.72 68.86C466.06 71.52 462.82 73.59 459.01 75.07C455.2 76.55 450.91 77.29 446.15 77.29C441.35 77.29 437.05 76.55 433.24 75.07C429.42 73.59 426.19 71.52 423.53 68.86C420.86 66.2 418.83 63.03 417.41 59.35C416 55.67 415.29 51.63 415.29 47.22C415.29 44.39 415.29 30.21 415.29 4.69L431.95 4.69C431.95 30.18 431.95 44.34 431.95 47.18C431.95 49.71 432.27 50.24 432.91 52.22C433.55 54.21 434.48 55.91 435.7 57.3C436.91 58.69 438.4 59.76 440.16 60.5C441.92 61.24 443.92 61.61 446.15 61.61C448.39 61.61 450.38 61.25 452.14 60.5Z" id="d1wIICDaoo"></path><path d="M361.35 53.2C367.27 59.22 374.28 61.87 379.65 61.87C386.01 61.87 388.42 59.22 388.42 55.95C388.42 51.97 385.68 50.24 376.8 47.48C364.96 43.71 353.24 38.5 353.24 24.31C353.24 12.26 364.53 2.97 378.66 2.77C388.85 2.67 398.06 6.24 405.73 12.26C404.69 13.53 396.36 23.65 395.32 24.92C388.74 20.02 383.7 17.98 379.32 17.98C374.93 17.98 372.19 20.12 372.19 23.59C372.08 26.86 374.93 28.49 383.48 31.55C397.18 36.45 407.59 39.82 407.59 54.01C407.59 71.06 391.7 77.29 379.21 77.29C369.24 77.29 358.94 73.62 350.5 65.65C352.67 63.16 360.26 54.44 361.35 53.2Z" id="e1pB7KfPoX"></path><path d="M36.72 77.29C34.48 77.29 23.24 77.29 3 77.29L3 4.8C20.38 4.8 30.04 4.8 31.97 4.8C49.04 4.8 57.26 11.34 57.26 22.46C57.26 28.69 54.45 35.23 46.12 38.49C46.12 38.51 46.12 38.68 46.12 38.7C56.5 41.36 61.26 48.09 61.26 57.08C61.26 68.72 53.15 77.29 36.72 77.29ZM29.27 33.7C34.67 33.7 38.99 31.35 38.99 26.76C38.99 22.68 35.86 19.82 28.62 19.82C28.09 19.82 25.46 19.82 20.73 19.82L20.73 33.7C25.85 33.7 28.7 33.7 29.27 33.7ZM31.11 47.07C30.41 47.07 26.95 47.07 20.73 47.07L20.73 62.39C26.95 62.39 30.41 62.39 31.11 62.39C37.8 62.39 42.45 59.83 42.45 54.73C42.45 50.24 38.89 47.07 31.11 47.07Z" id="e1mAbFDYvN"></path></defs><g><g><g><g><use xlink:href="#g4WUhojsV" opacity="1" fill="#00b35c" fill-opacity="1"></use></g><g><use xlink:href="#b2BBhGioc" opacity="1" fill="#00e676" fill-opacity="1"></use></g><g><use xlink:href="#m1loDjLCBM" opacity="1" fill="#00b35c" fill-opacity="1"></use><g><use xlink:href="#m1loDjLCBM" opacity="1" fill-opacity="0" stroke="#00b35c" stroke-width="2" stroke-opacity="1"></use></g></g><g><use xlink:href="#a1fYPSKmPd" opacity="1" fill="#00b35c" fill-opacity="1"></use><g><use xlink:href="#a1fYPSKmPd" opacity="1" fill-opacity="0" stroke="#00b35c" stroke-width="2" stroke-opacity="1"></use></g></g><g><use xlink:href="#bNkejvuF" opacity="1" fill="#00b35c" fill-opacity="1"></use><g><use xlink:href="#bNkejvuF" opacity="1" fill-opacity="0" stroke="#00b35c" stroke-width="2" stroke-opacity="1"></use></g></g><g><use xlink:href="#e1FugfuL8I" opacity="1" fill="#18bf55" fill-opacity="1"></use><g><use xlink:href="#e1FugfuL8I" opacity="1" fill-opacity="0" stroke="#18bf55" stroke-width="2" stroke-opacity="1"></use></g></g><g><use xlink:href="#a6gDuhroEG" opacity="1" fill="#00b35c" fill-opacity="1"></use><g><use xlink:href="#a6gDuhroEG" opacity="1" fill-opacity="0" stroke="#00b35c" stroke-width="2" stroke-opacity="1"></use></g></g><g><use xlink:href="#d1wIICDaoo" opacity="1" fill="#00b35c" fill-opacity="1"></use><g><use xlink:href="#d1wIICDaoo" opacity="1" fill-opacity="0" stroke="#00b35c" stroke-width="2" stroke-opacity="1"></use></g></g><g><use xlink:href="#e1pB7KfPoX" opacity="1" fill="#00b35c" fill-opacity="1"></use><g><use xlink:href="#e1pB7KfPoX" opacity="1" fill-opacity="0" stroke="#00b35c" stroke-width="2" stroke-opacity="1"></use></g></g><g><use xlink:href="#e1mAbFDYvN" opacity="1" fill="#00b35c" fill-opacity="1"></use><g><use xlink:href="#e1mAbFDYvN" opacity="1" fill-opacity="0" stroke="#00b35c" stroke-width="2" stroke-opacity="1"></use></g></g></g></g></g></svg>